<svg xmlns="http://www.w3.org/2000/svg" xmlns:xlink="http://www.w3.org/1999/xlink" width="128" zoomAndPan="magnify" viewBox="0 0 96 95.999999" height="128" preserveAspectRatio="xMidYMid meet" version="1.0"><defs><clipPath id="6a304719e3"><path d="M 5.039062 0 L 91.289062 0 L 91.289062 96 L 5.039062 96 Z M 5.039062 0 " clip-rule="nonzero"/></clipPath></defs><rect x="-9.6" width="115.2" fill="#ffffff" y="-9.6" height="115.199999" fill-opacity="1"/><rect x="-9.6" width="115.2" fill="#ffffff" y="-9.6" height="115.199999" fill-opacity="1"/><rect x="-9.6" width="115.2" fill="#ffffff" y="-9.6" height="115.199999" fill-opacity="1"/><g clip-path="url(#6a304719e3)"><path fill="#0277bd" d="M 91.28125 0 L 5.046875 0 L 12.65625 85.894531 L 48.164062 96 L 83.671875 85.894531 Z M 91.28125 0 " fill-opacity="1" fill-rule="nonzero"/></g><path fill="#039be5" d="M 48.164062 7.578125 L 48.164062 88.167969 L 76.570312 80.085938 L 82.914062 7.578125 Z M 48.164062 7.578125 " fill-opacity="1" fill-rule="nonzero"/><path fill="#ffffff" d="M 71.246094 20.210938 L 48.164062 20.210938 L 48.164062 30.316406 L 60.59375 30.316406 L 59.832031 40.421875 L 48.164062 40.421875 L 48.164062 50.527344 L 59.324219 50.527344 L 58.5625 61.894531 L 48.164062 65.429688 L 48.164062 76.042969 L 68.203125 69.472656 L 69.976562 40.421875 Z M 71.246094 20.210938 " fill-opacity="1" fill-rule="nonzero"/><path fill="#eeeeee" d="M 48.164062 20.210938 L 48.164062 30.316406 L 25.59375 30.316406 L 24.832031 20.210938 Z M 36.496094 40.421875 L 37.003906 50.527344 L 48.164062 50.527344 L 48.164062 40.421875 Z M 37.511719 55.578125 L 27.367188 55.578125 L 28.128906 69.472656 L 48.164062 76.042969 L 48.164062 65.429688 L 37.765625 61.894531 Z M 37.511719 55.578125 " fill-opacity="1" fill-rule="nonzero"/></svg>